<svg width="120" height="60" viewBox="0 0 120 60" fill="none" xmlns="http://www.w3.org/2000/svg">
<path d="M11.9213 40.946L12.1128 40.6778L21.1695 23.4929L21.1886 23.311L17.1963 15.8118C16.8617 15.1836 15.92 15.3424 15.8103 16.0456L11.9213 40.946Z" fill="#FFC24A"/>
<path d="M12.0343 40.7414L12.1791 40.459L21.14 23.4542L17.1586 15.9245C16.8276 15.3028 15.9872 15.4613 15.8777 16.1572L12.0343 40.7414Z" fill="#FFA712"/>
<path d="M12.0343 40.7414L12.1791 40.459L21.14 23.4542L17.1586 15.9245C16.8276 15.3028 15.9872 15.4613 15.8777 16.1572L12.0343 40.7414Z" fill="black"/>
<path d="M24.0991 28.9834L27.0718 25.939L24.0983 20.2626C23.816 19.7252 23.0279 19.7237 22.7486 20.2626L21.1598 23.2934V23.5514L24.0991 28.9834Z" fill="#F4BD62"/>
<path d="M24.0461 28.8566L26.936 25.8968L24.0461 20.3938C23.7717 19.8706 23.105 19.8167 22.8335 20.3397L21.2364 23.4156L21.1886 23.5729L24.0461 28.8566Z" fill="#FFA50E"/>
<path d="M24.0461 28.8566L26.936 25.8968L24.0461 20.3938C23.7717 19.8706 23.105 19.8167 22.8335 20.3397L21.2364 23.4156L21.1886 23.5729L24.0461 28.8566Z" fill="black"/>
<path d="M21.1682 23.2758L11.9213 40.9459L12.008 40.8586L12.3234 40.7305L23.9125 29.1845L24.0592 28.7849L21.1682 23.2758Z" fill="#F6820C"/>
<path d="M24.4703 46.7687L34.9587 40.9192L31.9644 22.4725C31.8706 21.8954 31.1626 21.6672 30.7496 22.0811L11.9213 40.9459L22.3494 46.7684C22.6736 46.9493 23.0386 47.0443 23.4099 47.0444C23.7811 47.0445 24.1462 46.9496 24.4704 46.7688" fill="#FDE068"/>
<path d="M34.8647 40.8703L31.8924 22.5644C31.7995 21.9916 31.2104 21.7546 30.8006 22.1653L12.0385 40.91L22.3522 46.674C23.0061 47.0391 23.8026 47.0393 24.4569 46.6745L34.8647 40.8703Z" fill="#FCCA3F"/>
<path d="M24.4703 46.5964C23.8118 46.9641 23.0084 46.9639 22.3494 46.5959L12.0051 40.8573L11.9213 40.9459L22.3494 46.7684C23.0085 47.1364 23.8111 47.1364 24.4704 46.7688L34.9587 40.9193L34.933 40.7613L24.4703 46.5964Z" fill="#EEAB37"/>
<path d="M42.9 38.237H41.115V24.345H49.215V26.052H42.9V30.612H48.605V32.282H42.9V38.237ZM52.353 26.343C52.107 26.589 51.81 26.713 51.461 26.713C51.2949 26.7159 51.13 26.6845 50.9765 26.6208C50.823 26.5572 50.6843 26.4626 50.569 26.343C50.4499 26.2273 50.3556 26.0885 50.292 25.9352C50.2284 25.7818 50.1967 25.617 50.199 25.451C50.1961 25.2849 50.2275 25.1199 50.2912 24.9665C50.3548 24.813 50.4494 24.6743 50.569 24.559C50.6847 24.4399 50.8235 24.3456 50.9768 24.282C51.1302 24.2184 51.295 24.1867 51.461 24.189C51.6271 24.1861 51.792 24.2175 51.9455 24.2812C52.099 24.3448 52.2377 24.4394 52.353 24.559C52.4721 24.6747 52.5664 24.8134 52.63 24.9668C52.6936 25.1202 52.7253 25.285 52.723 25.451C52.7259 25.6171 52.6945 25.782 52.6308 25.9355C52.5672 26.089 52.4726 26.2277 52.353 26.343ZM52.353 38.237H50.568V28.73H52.353V38.237ZM56.206 38.237H54.42V28.73H56.127V30.282H56.204C56.384 29.765 56.757 29.338 57.32 29.002C57.883 28.666 58.42 28.497 58.96 28.497C59.5 28.497 59.937 28.575 60.3 28.73L59.62 30.4C59.387 30.3 59.07 30.264 58.67 30.264C58.023 30.264 57.45 30.519 56.953 31.03C56.456 31.541 56.206 32.21 56.206 33.038V38.237ZM64.994 38.537C63.558 38.537 62.391 38.059 61.492 37.101C60.593 36.143 60.142 34.935 60.142 33.473C60.142 32.089 60.578 30.899 61.442 29.903C62.306 28.907 63.442 28.409 64.789 28.409C66.189 28.409 67.327 28.869 68.175 29.787C69.023 30.705 69.445 31.934 69.445 33.474L69.425 33.804H61.925C61.977 34.761 62.297 35.518 62.885 36.074C63.1578 36.342 63.4808 36.5536 63.8355 36.6967C64.1902 36.8398 64.5696 36.9116 64.952 36.908C66.232 36.908 67.099 36.365 67.552 35.278L69.152 35.938C68.852 36.675 68.33 37.293 67.619 37.791C66.908 38.289 66.034 38.538 64.999 38.538L64.994 38.537ZM67.554 32.337C67.514 31.794 67.266 31.277 66.807 30.785C66.348 30.293 65.665 30.048 64.76 30.048C64.1 30.048 63.528 30.255 63.043 30.668C62.558 31.081 62.225 31.638 62.043 32.338H67.543L67.554 32.337ZM75.917 38.537C75.192 38.537 74.542 38.382 73.967 38.071C73.392 37.76 72.961 37.373 72.667 36.907H72.6V38.227H70.893V24.345H72.678V28.73L72.6 30.05H72.678C72.963 29.584 73.393 29.196 73.978 28.886C74.563 28.576 75.204 28.42 75.928 28.42C77.158 28.42 78.228 28.905 79.11 29.875C79.992 30.845 80.45 32.048 80.45 33.475C80.45 34.902 80.004 36.115 79.11 37.075C78.216 38.035 77.157 38.53 75.928 38.53L75.917 38.537ZM75.617 36.907C76.445 36.907 77.157 36.593 77.751 35.967C78.345 35.341 78.643 34.509 78.643 33.474C78.643 32.439 78.345 31.608 77.751 30.981C77.157 30.354 76.444 30.041 75.617 30.041C75.2138 30.0331 74.8137 30.1121 74.4437 30.2725C74.0738 30.433 73.7427 30.6712 73.473 30.971C72.885 31.601 72.59 32.426 72.59 33.474C72.59 34.522 72.884 35.356 73.473 35.977C74.062 36.598 74.776 36.909 75.617 36.909V36.907ZM85.13 38.537C84.13 38.537 83.277 38.237 82.598 37.664C81.919 37.091 81.578 36.312 81.578 35.364C81.578 34.329 81.978 33.518 82.781 32.929C83.584 32.34 84.573 32.046 85.751 32.046C86.799 32.046 87.659 32.24 88.331 32.628V32.356C88.331 31.656 88.091 31.098 87.613 30.678C87.135 30.258 86.546 30.048 85.847 30.048C85.329 30.048 84.86 30.171 84.44 30.418C84.0404 30.6396 83.734 30.9978 83.577 31.427L81.947 30.729C82.167 30.159 82.6 29.633 83.247 29.149C83.894 28.665 84.747 28.421 85.807 28.421C87.023 28.421 88.032 28.777 88.834 29.488C89.636 30.199 90.037 31.202 90.037 32.495V38.238H88.34V36.918H88.262C87.55 38.004 86.509 38.548 85.138 38.548L85.13 38.537ZM85.43 36.907C86.167 36.907 86.837 36.632 87.438 36.082C88.039 35.532 88.34 34.882 88.34 34.132C87.836 33.718 87.08 33.512 86.07 33.512C85.203 33.512 84.55 33.7 84.11 34.075C83.67 34.45 83.45 34.89 83.45 35.395C83.45 35.861 83.65 36.229 84.052 36.501C84.454 36.773 84.912 36.909 85.43 36.909V36.907ZM95.23 38.537C94.17 38.537 93.293 38.277 92.6 37.761C91.9248 37.2654 91.3982 36.5945 91.077 35.821L92.677 35.161C93.181 36.361 94.042 36.946 95.257 36.946C95.813 36.946 96.269 36.823 96.625 36.576C96.981 36.329 97.159 36.006 97.159 35.606C97.159 34.986 96.726 34.566 95.859 34.346L93.939 33.88C93.331 33.725 92.755 33.43 92.212 32.997C91.669 32.564 91.4 32 91.4 31.252C91.4 30.412 91.772 29.729 92.516 29.205C93.26 28.681 94.143 28.419 95.166 28.419C96.006 28.419 96.766 28.619 97.416 28.991C98.066 29.363 98.548 29.919 98.833 30.631L97.281 31.271C96.931 30.431 96.207 30.011 95.108 30.011C94.578 30.011 94.131 30.111 93.768 30.341C93.405 30.571 93.225 30.858 93.225 31.233C93.225 31.776 93.645 32.145 94.485 32.339L96.367 32.785C97.259 32.992 97.919 33.348 98.347 33.852C98.775 34.356 98.987 34.926 98.987 35.559C98.987 36.413 98.637 37.124 97.939 37.693C97.241 38.262 96.341 38.547 95.242 38.547L95.23 38.537ZM104.737 38.537C103.301 38.537 102.133 38.059 101.235 37.101C100.337 36.143 99.885 34.935 99.885 33.473C99.885 32.089 100.321 30.899 101.185 29.903C102.049 28.907 103.185 28.409 104.532 28.409C105.932 28.409 107.07 28.869 107.918 29.787C108.766 30.705 109.188 31.934 109.188 33.474V33.804H101.688C101.738 34.761 102.06 35.518 102.648 36.074C102.921 36.3419 103.244 36.5534 103.598 36.6965C103.953 36.8396 104.332 36.9115 104.714 36.908C105.994 36.908 106.861 36.365 107.314 35.278L108.914 35.938C108.614 36.675 108.092 37.293 107.381 37.791C106.67 38.289 105.796 38.538 104.761 38.538L104.737 38.537ZM107.297 32.337C107.257 31.794 107.009 31.277 106.55 30.785C106.091 30.293 105.408 30.048 104.503 30.048C103.874 30.0369 103.263 30.258 102.786 30.669C102.301 31.083 101.968 31.639 101.786 32.339H107.286L107.297 32.337Z" fill="#63666A"/>
</svg>
