<svg width="390" height="28" viewBox="0 0 390 28" fill="none" xmlns="http://www.w3.org/2000/svg">
<rect width="390" height="28" fill="#D9D9D9"/>
<path d="M318.782 6C323.245 6 327.343 7.49683 330.563 9.99607L318.782 24L307 9.99671C310.22 7.49709 314.319 6 318.782 6ZM318.782 8C315.628 8 312.612 8.84185 310.01 10.3918L313.321 14.327C314.945 13.4807 316.805 13 318.782 13C320.759 13 322.619 13.4806 324.242 14.3267L327.552 10.3913C324.951 8.84167 321.935 8 318.782 8Z" fill="black"/>
<g clip-path="url(#clip0_21_311)">
<path d="M336.083 7H353.417C354.015 7 354.5 7.44772 354.5 8V20C354.5 20.5523 354.015 21 353.417 21H336.083C335.485 21 335 20.5523 335 20V8C335 7.44772 335.485 7 336.083 7ZM338.25 10V18H342.583V10H338.25ZM355.583 11H357.75V17H355.583V11Z" fill="black"/>
</g>
<defs>
<clipPath id="clip0_21_311">
<rect width="26" height="24" fill="white" transform="translate(332 4)"/>
</clipPath>
</defs>
</svg>
