<svg width="17" height="16" viewBox="0 0 17 16" fill="none" xmlns="http://www.w3.org/2000/svg">
<path fill-rule="evenodd" clip-rule="evenodd" d="M12.28 6.5C12.28 9.53757 9.81756 12 6.78 12C3.74243 12 1.28 9.53757 1.28 6.5C1.28 3.46243 3.74243 1 6.78 1C9.81756 1 12.28 3.46243 12.28 6.5ZM11.0091 11.4362C9.87234 12.411 8.39495 13 6.78 13C3.19015 13 0.279999 10.0899 0.279999 6.5C0.279999 2.91015 3.19015 0 6.78 0C10.3699 0 13.28 2.91015 13.28 6.5C13.28 8.11495 12.691 9.59234 11.7162 10.7291L16.1336 15.1464L15.4264 15.8536L11.0091 11.4362Z" fill="black" fill-opacity="0.8"/>
</svg>
