<svg width="19" height="16" viewBox="0 0 19 16" fill="none" xmlns="http://www.w3.org/2000/svg">
<path fill-rule="evenodd" clip-rule="evenodd" d="M4.08701 11.5266L3.8497 11.0341C3.40801 10.1174 3.16 9.08908 3.16 8C3.16 4.13401 6.29401 1 10.16 1C14.026 1 17.16 4.13401 17.16 8C17.16 11.866 14.026 15 10.16 15C9.05526 15 8.01296 14.7448 7.08628 14.2911L6.81843 14.1599L6.52249 14.1969L2.10389 14.7492L3.80048 11.9923L4.08701 11.5266ZM0.83186 14.9082L0.160004 16L1.43203 15.841L6.64653 15.1892C7.7071 15.7085 8.89951 16 10.16 16C14.5783 16 18.16 12.4183 18.16 8C18.16 3.58172 14.5783 0 10.16 0C5.74173 0 2.16 3.58172 2.16 8C2.16 9.24258 2.4433 10.419 2.94882 11.4682L0.83186 14.9082Z" fill="black" fill-opacity="0.8"/>
</svg>
