<svg width="19" height="16" viewBox="0 0 19 16" fill="none" xmlns="http://www.w3.org/2000/svg">
<path fill-rule="evenodd" clip-rule="evenodd" d="M4.08704 11.5266L3.84973 11.0341C3.40804 10.1174 3.16003 9.08908 3.16003 8C3.16003 4.13401 6.29404 1 10.16 1C14.026 1 17.16 4.13401 17.16 8C17.16 11.866 14.026 15 10.16 15C9.05529 15 8.01299 14.7448 7.08631 14.2911L6.81846 14.1599L6.52252 14.1969L2.10392 14.7492L3.80051 11.9923L4.08704 11.5266ZM0.83189 14.9082L0.160034 16L1.43206 15.841L6.64656 15.1892C7.70713 15.7085 8.89954 16 10.16 16C14.5783 16 18.16 12.4183 18.16 8C18.16 3.58172 14.5783 0 10.16 0C5.74176 0 2.16003 3.58172 2.16003 8C2.16003 9.24258 2.44333 10.419 2.94885 11.4682L0.83189 14.9082Z" fill="black" fill-opacity="0.8"/>
</svg>
