<svg width="20" height="20" viewBox="0 0 20 20" fill="none" xmlns="http://www.w3.org/2000/svg">
<path d="M3.33409 2.54491C4.3494 1.63637 5.55145 0.9322 6.87555 0.49707C7.60856 1.4128 8.7358 1.99928 10 1.99928C11.2642 1.99928 12.3914 1.4128 13.1245 0.49707C14.4486 0.9322 15.6506 1.63637 16.6659 2.54491C16.2405 3.637 16.2966 4.90531 16.9282 5.99928C17.5602 7.09388 18.6314 7.77679 19.7906 7.95392C19.9279 8.6142 20 9.2983 20 9.9993C20 10.7002 19.9279 11.3844 19.7906 12.0446C18.6314 12.2218 17.5602 12.9047 16.9282 13.9993C16.2966 15.0932 16.2405 16.3616 16.6659 17.4536C15.6506 18.3622 14.4486 19.0664 13.1245 19.5015C12.3914 18.5858 11.2642 17.9993 10 17.9993C8.7358 17.9993 7.60856 18.5858 6.87555 19.5015C5.55145 19.0664 4.3494 18.3622 3.33409 17.4536C3.75952 16.3616 3.7034 15.0932 3.0718 13.9993C2.43983 12.9047 1.36862 12.2218 0.20935 12.0446C0.0721201 11.3844 0 10.7002 0 9.9993C0 9.2983 0.0721201 8.6142 0.20935 7.95392C1.36862 7.77679 2.43983 7.09388 3.0718 5.99928C3.7034 4.90531 3.75952 3.637 3.33409 2.54491ZM11.5 12.5974C12.9349 11.7689 13.4265 9.9342 12.5981 8.4993C11.7696 7.0644 9.9349 6.57277 8.5 7.4012C7.06512 8.2296 6.5735 10.0644 7.40192 11.4993C8.2304 12.9342 10.0651 13.4258 11.5 12.5974Z" fill="black"/>
</svg>
